<?xml version="1.0" encoding="utf-8"?>
<!-- Generator: Adobe Illustrator 17.0.0, SVG Export Plug-In . SVG Version: 6.00 Build 0)  -->
<!DOCTYPE svg PUBLIC "-//W3C//DTD SVG 1.1//EN" "http://www.w3.org/Graphics/SVG/1.1/DTD/svg11.dtd">
<svg version="1.1" id="Layer_1" xmlns="http://www.w3.org/2000/svg" xmlns:xlink="http://www.w3.org/1999/xlink" x="0px" y="0px"
	 width="55px" height="42.6px" viewBox="0 0 55 42.6" style="enable-background:new 0 0 55 42.6;" xml:space="preserve">
<style type="text/css">
	.st0{fill:#FFFFFF;}
</style>
<g>
	<path class="st0" d="M48.7,25.8c0-2.9,1.7-3.8,2.6-4.2v-0.1c-0.6-0.3-2.6-1.3-2.6-4.3v-3.8c0-3.4-2.3-5.3-5.1-5.8
		c-0.2,0-0.5-0.3-0.4-0.6l0.1-1.3c0-0.4,0.3-0.6,0.6-0.5c3.3,0.1,7.9,1.8,7.9,8.3V18c0,1.4,1.7,2.3,2.3,2.4c0.2,0.1,0.5,0.3,0.5,0.5
		v1.3c0,0.3-0.2,0.5-0.5,0.6c-0.8,0.1-2.2,0.9-2.2,2.4v4.6c0,6.5-4.6,8.2-7.9,8.2c-0.3,0-0.6-0.2-0.6-0.5L43.1,36
		c0-0.3,0.2-0.5,0.4-0.6c2.8-0.5,5.1-2.4,5.1-5.8V25.8z"/>
	<path class="st0" d="M30.2,0.4H12.1C5.4,0.4,0,5.8,0,12.4v18.1c0,6.6,5.4,12.1,12.1,12.1h18.1c6.6,0,12.1-5.4,12.1-12.1V12.4
		C42.2,5.8,36.8,0.4,30.2,0.4z M7.2,25.8v3.9c0,3.4,2.3,5.3,5.1,5.8c0.2,0,0.5,0.3,0.4,0.6l-0.1,1.3c0,0.3-0.3,0.6-0.6,0.5
		c-3.3-0.1-7.9-1.8-7.9-8.2v-4.6c0-1.4-1.4-2.2-2.2-2.4c-0.3,0-0.5-0.3-0.5-0.6v-1.3c0-0.3,0.2-0.5,0.5-0.5c0.5-0.1,2.3-0.9,2.3-2.4
		v-4.6c0-6.5,4.6-8.2,7.9-8.3c0.4,0,0.6,0.2,0.6,0.5l0.1,1.3c0,0.3-0.2,0.5-0.4,0.6C9.5,8,7.2,10,7.2,13.3v3.8c0,3-2,4-2.6,4.3v0.1
		C5.5,21.9,7.2,22.8,7.2,25.8z M16.8,30.7c0,0.3-0.3,0.5-0.5,0.5h-1.8c-0.3,0-0.5-0.3-0.5-0.5V12.2c0-0.3,0.3-0.5,0.5-0.5h1.8
		c0.3,0,0.5,0.3,0.5,0.5V30.7z M37.2,31c0,0.3-0.3,0.5-0.5,0.5H36L23.9,17.1h0v13.6c0,0.3-0.2,0.5-0.5,0.5h-1.8
		c-0.3,0-0.5-0.3-0.5-0.5V11.9c0-0.3,0.3-0.5,0.5-0.5h0.7l12.1,14h0V12.2c0-0.3,0.2-0.5,0.5-0.5h1.8c0.3,0,0.5,0.3,0.5,0.5V31z"/>
</g>
</svg>
